<?xml version="1.0" encoding="UTF-8" standalone="no"?>
<svg
   height="129.11234"
   viewBox="0 0 129.11234 129.11234"
   preserveAspectRatio="xMinYMin"
   version="1.1"
   id="svg740"
   sodipodi:docname="isopodb-logo.svg"
   inkscape:version="1.2.2 (b0a84865, 2022-12-01)"
   width="129.11234"
   xmlns:inkscape="http://www.inkscape.org/namespaces/inkscape"
   xmlns:sodipodi="http://sodipodi.sourceforge.net/DTD/sodipodi-0.dtd"
   xmlns="http://www.w3.org/2000/svg"
   xmlns:svg="http://www.w3.org/2000/svg"
   xmlns:rdf="http://www.w3.org/1999/02/22-rdf-syntax-ns#"
   xmlns:cc="http://creativecommons.org/ns#"
   xmlns:dc="http://purl.org/dc/elements/1.1/">
  <defs
     id="defs744" />
  <sodipodi:namedview
     id="namedview742"
     pagecolor="#ffffff"
     bordercolor="#000000"
     borderopacity="0.25"
     inkscape:showpageshadow="2"
     inkscape:pageopacity="0.0"
     inkscape:pagecheckerboard="0"
     inkscape:deskcolor="#d1d1d1"
     showgrid="false"
     inkscape:zoom="2.9140625"
     inkscape:cx="68.117962"
     inkscape:cy="83.731903"
     inkscape:window-width="1494"
     inkscape:window-height="940"
     inkscape:window-x="1597"
     inkscape:window-y="25"
     inkscape:window-maximized="0"
     inkscape:current-layer="layer4" />
  <title
     id="title633">Isopodb Logo</title>
  <desc
     id="desc635">An SVG representation of the Isopodb logo.</desc>
  <g
     id="g3773"
     style="stroke-width:6.77041;stroke-dasharray:none"
     transform="matrix(0.73850783,0,0,0.73850783,-29.972832,-22.808666)">
    <path
       style="fill:none;stroke:#ffffff;stroke-width:6.77041;stroke-linecap:round;stroke-linejoin:round;stroke-dasharray:none"
       d="M 102.64914,124.43717 128,128 109.5849,110.21675"
       id="path3720" />
    <path
       style="fill:none;stroke:#ffffff;stroke-width:6.77041;stroke-linecap:round;stroke-linejoin:round;stroke-dasharray:none"
       d="M 123.55461,102.78892 128,128 139.2223,104.99087"
       id="path3722" />
    <path
       style="fill:none;stroke:#ffffff;stroke-width:6.77041;stroke-linecap:round;stroke-linejoin:round;stroke-dasharray:none"
       d="M 150.60346,115.98153 128,128 l 25.35086,3.56283"
       id="path3724" />
    <path
       style="fill:none;stroke:#ffffff;stroke-width:6.77041;stroke-linecap:square;stroke-linejoin:round;stroke-dasharray:none"
       d="m 128,128 18.4151,17.78325"
       id="path3726" />
  </g>
  <g
     inkscape:groupmode="layer"
     id="layer4"
     inkscape:label="Layer 4"
     style="display:inline"
     transform="translate(-63.443829,-55.443825)">
    <g
       id="g649"
       style="fill:none">
      <g
         transform="translate(76.381333,160.25492)"
         id="g647"
         style="fill:none">
        <g
           transformOrigin="center bottom"
           transform-origin="center bottom"
           style="fill:none;fill-opacity:1;stroke:#ffffff;stroke-width:5;stroke-linecap:round"
           id="g645">
          <g
             transform="translate(-76.381333,-160.25492)"
             id="g643"
             style="fill:none">
            <path
               id="path639"
               d="m 124.01758,65.960938 c -8.52122,-0.166691 -17.93359,3.327213 -28.23633,10.478515 -10.593559,3.401711 -18.645414,12.996724 -24.154297,28.785157 -6.570893,8.97878 -7.444521,21.47322 -2.621094,37.48437 -0.03837,11.12627 13.112622,13.98513 39.453121,8.57813 l 9.65235,7.14648 c -2.64114,-8.95962 -5.9708,-17.21033 -9.98242,-24.75781 0.34898,-4.28949 0.65826,-8.72529 0.92773,-13.31445 2.65509,-3.10044 5.35445,-6.3191 8.10938,-9.67774 3.9698,-0.94757 8.04578,-1.96282 12.24804,-3.06054 3.76809,1.56657 7.66271,3.14093 11.70703,4.72265 2.12718,3.48146 4.3517,7.04321 6.69336,10.69922 -0.34846,4.35452 -0.66058,8.83709 -0.92773,13.49805 -4.4566,6.33721 -8.90024,13.98865 -13.33008,22.9707 l 10.55274,-5.73242 c 21.33324,13.78538 34.75479,12.78257 40.26367,-3.00586 0.82136,-1.12235 1.55394,-2.29902 2.19726,-3.53125 0.32167,-0.61611 0.62129,-1.24509 0.89844,-1.88867 0.13858,-0.32179 0.27099,-0.6479 0.39844,-0.97656 0.38235,-0.98598 0.71389,-2.003 0.99609,-3.05079 0.37627,-1.39704 0.66505,-2.84853 0.86328,-4.35546 0.19824,-1.50693 0.30598,-3.06874 0.32617,-4.68555 0.0505,-4.04203 -0.45534,-8.42747 -1.51757,-13.15625 -0.4249,-1.89151 -0.93809,-3.83845 -1.54102,-5.83984 0.0384,-11.12627 -6.59876,-21.749039 -19.91211,-31.867192 -6.50881,-9.023887 -18.12377,-13.715807 -34.8418,-14.076172 -2.64246,-0.868674 -5.38224,-1.331155 -8.22265,-1.386718 z"
               style="fill:none" />
            <path
               id="circle641"
               style="fill:none;stroke:none"
               d="M 139.20966,160.25493 A 62.828323,62.828323 0 0 1 76.381332,223.08325 62.828323,62.828323 0 0 1 13.553009,160.25493 62.828323,62.828323 0 0 1 76.381332,97.426605 62.828323,62.828323 0 0 1 139.20966,160.25493 Z" />
          </g>
        </g>
      </g>
    </g>
    <g
       id="g661">
      <g
         transform="translate(67.280653,123.75409)"
         id="g659">
        <g
           transformOrigin="center bottom"
           transform-origin="center bottom"
           style="fill:#31323f;fill-opacity:1;stroke:#ffffff;stroke-width:5;stroke-linecap:round"
           id="g657">
          <g
             transform="translate(-67.280653,-123.75409)"
             id="g655">
            <path
               id="circle653"
               style="fill:none;stroke:none"
               d="M 130.99146,123.75409 A 63.710808,63.710808 0 0 1 67.280655,187.4649 63.710808,63.710808 0 0 1 3.5698471,123.75409 63.710808,63.710808 0 0 1 67.280655,60.043282 63.710808,63.710808 0 0 1 130.99146,123.75409 Z" />
          </g>
        </g>
      </g>
    </g>
    <g
       id="g673">
      <g
         transform="translate(81.3727,88.87505)"
         id="g671">
        <g
           transformOrigin="center bottom"
           transform-origin="center bottom"
           style="fill:#31323f;fill-opacity:1;stroke:#ffffff;stroke-width:5;stroke-linecap:round"
           id="g669">
          <g
             transform="translate(-81.3727,-88.87505)"
             id="g667">
            <path
               id="circle665"
               style="fill:none;stroke:none"
               d="M 142.24032,88.875053 A 60.867619,60.867619 0 0 1 81.372704,149.74267 60.867619,60.867619 0 0 1 20.505085,88.875053 60.867619,60.867619 0 0 1 81.372704,28.007435 60.867619,60.867619 0 0 1 142.24032,88.875053 Z" />
          </g>
        </g>
      </g>
    </g>
    <g
       id="g685">
      <g
         transform="translate(113.27479,68.940411)"
         id="g683">
        <g
           transformOrigin="center bottom"
           transform-origin="center bottom"
           style="fill:#31323f;fill-opacity:1;stroke:#ffffff;stroke-width:5;stroke-linecap:round"
           id="g681">
          <g
             transform="translate(-113.27479,-68.940411)"
             id="g679">
            <path
               id="circle677"
               style="fill:none;stroke:none"
               d="M 177.78299,68.940414 A 64.508202,64.508202 0 0 1 113.27479,133.44862 64.508202,64.508202 0 0 1 48.766586,68.940414 64.508202,64.508202 0 0 1 113.27479,4.4322128 64.508202,64.508202 0 0 1 177.78299,68.940414 Z" />
          </g>
        </g>
      </g>
    </g>
    <g
       id="g697">
      <g
         transform="translate(150.80141,71.564528)"
         id="g695">
        <g
           transformOrigin="center bottom"
           transform-origin="center bottom"
           style="fill:#31323f;fill-opacity:1;stroke:#ffffff;stroke-width:5;stroke-linecap:round"
           id="g693">
          <g
             transform="translate(-150.80141,-71.564528)"
             id="g691">
            <path
               id="circle689"
               style="fill:none;stroke:none"
               d="M 215.05251,71.564529 A 64.251106,64.251106 0 0 1 150.80141,135.81564 64.251106,64.251106 0 0 1 86.550301,71.564529 64.251106,64.251106 0 0 1 150.80141,7.3134232 64.251106,64.251106 0 0 1 215.05251,71.564529 Z" />
          </g>
        </g>
      </g>
    </g>
    <g
       id="g709">
      <g
         transform="translate(179.61867,95.745077)"
         id="g707">
        <g
           transformOrigin="center bottom"
           transform-origin="center bottom"
           style="fill:#31323f;fill-opacity:1;stroke:#ffffff;stroke-width:5;stroke-linecap:round"
           id="g705">
          <g
             transform="translate(-179.61867,-95.745077)"
             id="g703">
            <path
               id="circle701"
               style="fill:none;stroke:none"
               d="M 242.44699,95.745079 A 62.828323,62.828323 0 0 1 179.61867,158.5734 62.828323,62.828323 0 0 1 116.79034,95.745079 62.828323,62.828323 0 0 1 179.61867,32.916756 62.828323,62.828323 0 0 1 242.44699,95.745079 Z" />
          </g>
        </g>
      </g>
    </g>
    <g
       transform="translate(188.71935,132.24591)"
       id="g719">
      <g
         transformOrigin="center bottom"
         transform-origin="center bottom"
         style="fill:#31323f;fill-opacity:1;stroke:#ffffff;stroke-width:5;stroke-linecap:round"
         id="g717">
        <g
           transform="translate(-188.71935,-132.24591)"
           id="g715">
          <path
             id="circle713"
             style="fill:none;stroke:none"
             d="m 252.43015,132.24591 a 63.710808,63.710808 0 0 1 -63.7108,63.71081 63.710808,63.710808 0 0 1 -63.71081,-63.71081 63.710808,63.710808 0 0 1 63.71081,-63.710807 63.710808,63.710808 0 0 1 63.7108,63.710807 z" />
        </g>
      </g>
    </g>
    <g
       id="g733">
      <g
         transform="translate(174.6273,167.12495)"
         id="g731">
        <g
           transformOrigin="center bottom"
           transform-origin="center bottom"
           style="fill:#31323f;fill-opacity:1;stroke:#ffffff;stroke-width:5;stroke-linecap:round"
           id="g729">
          <g
             transform="translate(-174.6273,-167.12495)"
             id="g727">
            <path
               id="circle725"
               style="fill:none;stroke:none"
               d="m 231.35078,167.12495 a 56.723473,56.723473 0 0 1 -56.72348,56.72348 56.723473,56.723473 0 0 1 -56.72347,-56.72348 56.723473,56.723473 0 0 1 56.72347,-56.72347 56.723473,56.723473 0 0 1 56.72348,56.72347 z" />
          </g>
        </g>
      </g>
    </g>
  </g>
  <g
     inkscape:groupmode="layer"
     id="layer3"
     inkscape:label="Layer 3"
     style="stroke-width:5;stroke-dasharray:none"
     transform="translate(-63.443829,-55.443825)" />
  <g
     inkscape:groupmode="layer"
     id="layer1"
     inkscape:label="Layer 1"
     style="display:inline;stroke-width:5;stroke-dasharray:none"
     transform="translate(-63.443829,-55.443825)">
    <path
       style="fill:none;stroke:#ffffff;stroke-width:5;stroke-linecap:round;stroke-linejoin:miter;stroke-dasharray:none"
       d="m 69.00602,142.70885 38.28314,0.33845 1.49368,-21.901 v 0"
       id="path1439" />
    <path
       style="fill:none;stroke:#ffffff;stroke-width:5;stroke-linecap:round;stroke-linejoin:miter;stroke-dasharray:none"
       d="M 71.627222,105.22392 102.4,128 117.90383,110.40148"
       id="path1441" />
    <path
       style="fill:none;stroke:#ffffff;stroke-width:5;stroke-linecap:round;stroke-linejoin:miter;stroke-dasharray:none"
       d="m 95.780909,76.438676 11.508251,36.514024 21.74785,-4.85809"
       id="path1443" />
    <path
       style="fill:none;stroke:#ffffff;stroke-width:5;stroke-linecap:round;stroke-linejoin:miter;stroke-dasharray:none"
       d="m 132.24119,67.348106 -12.15203,36.304844 20.69479,8.1654"
       id="path1447" />
    <path
       style="fill:none;stroke:#ffffff;stroke-width:5;stroke-linecap:round;stroke-linejoin:miter;stroke-dasharray:none"
       d="m 167.08149,81.424498 -31.17065,22.228452 10.61999,17.49335"
       id="path1449" />
    <path
       style="fill:none;stroke:#ffffff;stroke-width:5;stroke-linecap:round;stroke-linejoin:miter;stroke-dasharray:none"
       d="m 186.99398,113.29115 -38.28314,-0.33845 v 21.0628"
       id="path1451" />
    <path
       style="fill:none;stroke:#ffffff;stroke-width:5;stroke-linecap:round;stroke-linejoin:miter;stroke-dasharray:none"
       d="M 184.37278,150.77608 153.6,128 l -6.71328,8.54297"
       id="path1453"
       sodipodi:nodetypes="ccc" />
  </g>
  <metadata
     id="metadata7806">
    <rdf:RDF>
      <cc:Work
         rdf:about="">
        <dc:title>Isopodb Logo</dc:title>
      </cc:Work>
    </rdf:RDF>
  </metadata>
</svg>
